<?xml version="1.0" standalone="no"?>
<!DOCTYPE svg PUBLIC "-//W3C//DTD SVG 20010904//EN"
 "http://www.w3.org/TR/2001/REC-SVG-20010904/DTD/svg10.dtd">
<svg version="1.0" xmlns="http://www.w3.org/2000/svg"
 width="637.000000pt" height="122.000000pt" viewBox="0 0 637.000000 122.000000"
 preserveAspectRatio="xMidYMid meet">

<g transform="translate(0.000000,122.000000) scale(0.100000,-0.100000)"
fill="#000000" stroke="none">
<path d="M5775 950 c4 -6 11 -8 16 -5 14 9 11 15 -7 15 -8 0 -12 -5 -9 -10z"/>
<path d="M5470 940 c0 -5 4 -10 9 -10 6 0 13 5 16 10 3 6 -1 10 -9 10 -9 0
-16 -4 -16 -10z"/>
<path d="M5150 926 c0 -2 6 -9 14 -15 10 -9 16 -8 26 4 11 13 8 15 -14 15 -14
0 -26 -2 -26 -4z"/>
<path d="M5919 912 c0 -10 -3 -12 -6 -4 -6 15 -37 16 -65 1 -17 -9 -18 -13 -7
-20 9 -6 10 -12 4 -16 -16 -12 -16 -31 0 -37 8 -3 17 3 20 15 4 10 10 17 15
14 5 -3 11 -1 15 5 12 19 71 11 93 -13 35 -37 29 -83 -14 -124 l-37 -34 54 3
54 3 3 96 c2 80 0 98 -14 110 -15 12 -18 12 -22 0 -3 -8 -7 -9 -11 -3 -3 5
-23 13 -43 16 -32 5 -38 3 -39 -12z"/>
<path d="M5584 909 c-3 -6 0 -15 7 -20 12 -8 12 -10 -1 -18 -10 -7 -3 -10 26
-9 23 0 51 -5 62 -11 40 -21 41 -92 2 -131 -20 -20 -20 -20 24 -20 53 0 67 15
74 79 5 61 -17 106 -64 129 -31 14 -36 14 -44 2 -7 -10 -10 -11 -10 -2 0 15
-66 16 -76 1z"/>
<path d="M5330 901 c0 -5 6 -12 13 -14 9 -4 9 -8 -2 -15 -11 -8 -8 -13 14 -23
16 -8 37 -26 48 -41 19 -26 20 -29 4 -68 l-15 -40 38 0 c43 0 50 12 50 89 0
39 -5 49 -40 83 -31 29 -49 38 -75 38 -19 0 -35 -4 -35 -9z"/>
<path d="M4982 890 c-32 -7 -64 -29 -89 -60 -9 -12 -7 -17 13 -28 21 -11 28
-10 51 8 14 11 41 20 59 20 32 0 34 2 34 35 0 38 -5 40 -68 25z"/>
<path d="M5236 868 c-21 -17 -47 -50 -57 -72 -14 -32 -19 -36 -19 -18 0 40
-37 91 -66 92 -12 0 -12 -51 0 -93 5 -17 4 -38 -3 -53 -10 -23 -9 -24 24 -24
29 0 35 4 36 23 l0 22 11 -22 c8 -17 20 -23 46 -23 32 0 34 2 28 25 -7 29 17
83 45 103 22 15 26 72 6 72 -7 0 -30 -14 -51 -32z"/>
<path d="M5521 871 l-24 -24 24 -13 c21 -11 24 -10 27 7 2 10 2 27 0 37 -3 15
-6 14 -27 -7z"/>
<path d="M4420 860 c-9 -6 -10 -10 -3 -10 6 0 15 5 18 10 8 12 4 12 -15 0z"/>
<path d="M4583 823 c2 -25 7 -28 43 -31 39 -3 42 -1 46 27 5 31 4 31 -43 31
-46 0 -48 -1 -46 -27z"/>
<path d="M3678 833 c-55 -4 -58 -5 -58 -31 0 -15 -3 -44 -6 -64 l-7 -38 97 0
c65 0 96 4 96 11 0 8 -19 10 -61 6 l-60 -5 3 26 c3 25 7 27 61 30 l57 3 0 34
c0 39 13 36 -122 28z"/>
<path d="M4486 814 c-21 -14 -44 -41 -52 -60 -15 -35 -34 -38 -34 -5 0 14 -50
71 -63 71 -2 0 -3 -16 -3 -35 0 -19 4 -35 8 -35 4 0 8 -11 8 -25 0 -24 2 -25
64 -25 60 0 64 2 70 25 3 13 20 35 36 47 18 13 30 31 30 45 0 30 -16 29 -64
-3z"/>
<path d="M4213 809 c-29 -14 -48 -33 -62 -62 l-21 -42 27 -3 c16 -2 30 2 35
12 18 32 52 56 80 56 24 0 28 4 28 30 0 24 -4 30 -22 30 -13 0 -42 -9 -65 -21z"/>
<path d="M3834 785 c0 -19 3 -35 8 -35 4 0 3 -11 -2 -25 -12 -32 3 -32 24 0
20 31 21 64 1 71 -8 4 -12 10 -9 15 3 5 -1 9 -8 9 -9 0 -14 -12 -14 -35z"/>
<path d="M3926 798 c-3 -13 -6 -40 -6 -60 0 -36 2 -38 30 -38 29 0 30 2 30 44
0 24 3 51 6 60 5 12 -1 16 -24 16 -22 0 -31 -6 -36 -22z"/>
<path d="M4046 798 c-3 -13 -9 -54 -13 -92 -6 -63 -5 -69 11 -63 10 4 20 7 22
7 2 0 4 17 4 38 0 21 11 60 24 85 l23 47 -32 0 c-25 0 -34 -5 -39 -22z"/>
<path d="M5901 800 c-13 -11 -33 -20 -45 -20 -17 0 -23 -9 -32 -44 l-10 -44
61 40 c65 44 87 66 79 79 -8 14 -27 10 -53 -11z"/>
<path d="M5606 785 c-15 -14 -36 -25 -46 -25 -13 0 -22 -10 -28 -32 -5 -18 -7
-35 -6 -37 6 -7 115 69 121 85 11 30 -13 35 -41 9z"/>
<path d="M3263 755 c0 -22 2 -30 4 -17 2 12 2 30 0 40 -3 9 -5 -1 -4 -23z"/>
<path d="M3343 775 c-3 -9 -3 -18 0 -21 3 -4 2 -17 -3 -30 -9 -22 -7 -24 20
-24 29 0 30 2 30 45 0 39 -3 45 -20 45 -11 0 -23 -7 -27 -15z"/>
<path d="M5305 770 c-19 -21 -14 -50 9 -50 9 0 23 11 32 25 27 42 -7 63 -41
25z"/>
<path d="M2433 773 l-62 -4 1 -34 1 -35 86 3 86 2 3 38 c3 35 2 37 -25 35 -15
-1 -56 -3 -90 -5z"/>
<path d="M2584 768 c-4 -6 -3 -13 3 -15 6 -2 9 -13 6 -23 -8 -32 35 -26 47 6
6 14 10 30 10 35 0 13 -58 11 -66 -3z"/>
<path d="M3146 749 c-9 -47 -8 -49 24 -49 25 0 30 4 30 24 0 13 3 31 6 40 5
12 -1 16 -24 16 -25 0 -30 -5 -36 -31z"/>
<path d="M4986 753 c-25 -21 -37 -24 -72 -20 l-42 4 -4 -48 c-1 -27 -1 -49 2
-49 14 0 144 87 154 102 19 32 -6 39 -38 11z"/>
<path d="M2975 752 c-16 -11 -36 -26 -44 -35 -12 -15 -10 -17 15 -17 16 0 46
3 67 6 33 6 37 10 37 35 0 23 -4 29 -22 29 -13 0 -36 -8 -53 -18z"/>
<path d="M3080 760 c0 -5 4 -10 9 -10 6 0 13 5 16 10 3 6 -1 10 -9 10 -9 0
-16 -4 -16 -10z"/>
<path d="M2688 753 c-10 -2 -18 -8 -18 -13 0 -5 -3 -15 -6 -24 -5 -14 4 -16
65 -16 l71 0 0 30 c0 29 -1 30 -47 29 -27 -1 -56 -3 -65 -6z"/>
<path d="M2836 754 c7 -3 10 -14 7 -24 -4 -13 0 -20 10 -20 8 0 17 11 19 25 5
22 2 25 -21 24 -14 0 -21 -3 -15 -5z"/>
<path d="M3527 724 c-28 -34 -30 -35 -53 -19 -29 19 -30 17 -39 -79 l-6 -70
21 27 c26 32 54 35 73 6 14 -19 16 -15 22 58 4 43 9 86 11 96 7 24 3 22 -29
-19z"/>
<path d="M1699 736 c-3 -4 -29 -7 -57 -7 -33 -1 -53 -6 -56 -15 -4 -11 16 -14
106 -14 101 0 111 2 97 15 -16 17 -80 31 -90 21z"/>
<path d="M2115 723 c-47 -11 -38 -24 14 -21 32 2 56 8 59 16 4 12 -32 15 -73
5z"/>
<path d="M4586 714 c-4 -11 4 -14 34 -14 28 0 40 4 40 14 0 9 -12 14 -34 14
-21 0 -37 -6 -40 -14z"/>
<path d="M1225 710 c3 -5 8 -10 11 -10 2 0 4 5 4 10 0 6 -5 10 -11 10 -5 0 -7
-4 -4 -10z"/>
<path d="M1940 710 c0 -5 25 -10 55 -10 30 0 55 5 55 10 0 6 -25 10 -55 10
-30 0 -55 -4 -55 -10z"/>
<path d="M4255 700 c-14 -15 -16 -23 -7 -32 13 -13 42 6 42 28 0 22 -17 24
-35 4z"/>
<path d="M1873 703 c9 -2 25 -2 35 0 9 3 1 5 -18 5 -19 0 -27 -2 -17 -5z"/>
<path d="M865 690 c-3 -5 -1 -10 4 -10 6 0 11 5 11 10 0 6 -2 10 -4 10 -3 0
-8 -4 -11 -10z"/>
<path d="M1420 664 c0 -8 -4 -13 -9 -10 -5 3 -14 -1 -21 -9 -14 -17 -8 -60 16
-111 9 -19 14 -45 12 -59 -4 -19 -1 -25 13 -25 11 0 19 -4 19 -9 0 -6 -12 -6
-28 -2 -29 9 -52 -6 -52 -33 0 -24 15 -27 53 -11 38 16 77 58 77 84 0 9 -11
40 -25 70 -27 58 -25 91 6 91 24 0 26 30 2 31 -10 0 -28 2 -40 5 -16 3 -23 -1
-23 -12z"/>
<path d="M1939 669 c-10 -6 -4 -9 19 -9 17 0 32 2 32 4 0 9 -39 13 -51 5z"/>
<path d="M2662 643 c-6 -21 -13 -70 -17 -108 l-7 -70 79 3 c43 2 79 8 81 12 1
4 14 5 27 2 21 -4 25 -1 25 22 0 30 -7 32 -32 9 -17 -15 -18 -15 -18 0 0 13
-10 17 -45 17 -41 0 -45 2 -45 25 0 23 4 25 45 25 44 0 45 1 45 31 0 30 -1 31
-42 27 -35 -2 -43 0 -47 17 -10 35 -37 29 -49 -12z"/>
<path d="M2920 662 c0 -13 -2 -14 -9 -4 -6 10 -11 5 -21 -17 -28 -68 38 -161
114 -161 47 0 76 11 76 27 0 13 -2 13 -17 2 -15 -13 -16 -12 -11 9 5 19 2 22
-26 22 -61 0 -99 54 -77 111 7 21 6 25 -10 26 -12 1 -19 -5 -19 -15z"/>
<path d="M3169 663 c0 -11 -3 -13 -6 -5 -2 6 -8 12 -13 12 -10 0 -16 -31 -25
-117 l-7 -63 30 0 c28 0 30 2 36 54 l7 54 55 7 c49 6 55 9 52 28 -3 19 -10 22
-53 25 -27 1 -51 7 -53 12 -6 17 -22 11 -23 -7z"/>
<path d="M3670 665 c0 -11 11 -15 40 -15 38 0 59 19 23 21 -10 0 -28 2 -40 5
-16 3 -23 -1 -23 -11z"/>
<path d="M3916 652 c-3 -15 -8 -49 -12 -75 l-7 -49 84 6 c46 2 94 5 107 6 17
0 22 6 22 25 0 16 -6 25 -15 25 -8 0 -14 -5 -12 -12 1 -6 -6 -14 -15 -16 -11
-2 -18 2 -18 12 0 12 -11 16 -43 16 l-44 0 1 41 c1 35 -2 42 -21 45 -17 3 -23
-2 -27 -24z"/>
<path d="M4170 665 c-1 -11 -4 -14 -7 -7 -8 21 -33 13 -33 -10 0 -41 36 -86
79 -99 58 -17 91 -6 91 31 0 27 -2 29 -29 24 -38 -8 -68 10 -85 49 -11 25 -15
28 -16 12z"/>
<path d="M4420 654 c0 -38 59 -94 99 -94 27 0 31 4 31 26 0 19 -7 28 -30 35
-16 6 -32 19 -35 30 -4 10 -9 19 -13 20 -4 0 -17 2 -29 5 -19 3 -23 -1 -23
-22z"/>
<path d="M5190 660 c15 -29 60 -60 86 -60 19 0 24 5 24 24 0 29 -31 59 -38 37
-3 -8 -7 -9 -11 -3 -3 5 -21 12 -38 15 -29 5 -32 3 -23 -13z"/>
<path d="M5419 663 c0 -11 -3 -13 -6 -5 -6 14 -52 16 -73 2 -13 -9 -13 -11 0
-20 13 -9 13 -11 0 -20 -12 -8 -11 -10 6 -10 12 0 36 10 54 23 34 23 50 47 31
47 -6 0 -11 -8 -12 -17z"/>
<path d="M5669 662 c0 -11 -3 -12 -6 -4 -6 15 -37 16 -65 1 -17 -9 -18 -13 -7
-20 9 -6 11 -11 3 -16 -5 -5 -10 -19 -10 -33 1 -38 -28 -32 -34 7 l-5 33 -27
-23 c-16 -12 -31 -37 -34 -55 l-7 -33 39 7 c21 3 45 11 52 17 8 6 12 6 12 -2
0 -12 80 -15 143 -5 33 6 37 10 37 35 l0 29 -70 0 c-40 0 -70 4 -70 10 0 6 3
9 8 8 9 -4 82 41 82 51 0 16 -40 9 -41 -7z"/>
<path d="M5920 663 c0 -13 -2 -15 -9 -5 -6 10 -13 11 -34 1 -15 -7 -27 -18
-27 -26 0 -7 -4 -13 -10 -13 -5 0 -9 -3 -9 -7 4 -24 -2 -53 -12 -53 -5 0 -7 5
-4 10 3 6 1 10 -4 10 -6 0 -11 8 -12 18 -1 11 -4 9 -9 -8 -15 -47 -13 -49 43
-46 28 2 89 4 135 5 l82 1 0 36 0 36 -60 -4 c-33 -2 -60 -2 -60 2 0 3 14 14
31 24 35 21 35 23 -9 31 -26 4 -32 2 -32 -12z"/>
<path d="M334 659 c-3 -6 0 -16 7 -21 11 -7 11 -11 1 -15 -22 -9 -2 -23 33
-23 l35 0 -6 -47 c-3 -27 -7 -60 -9 -75 -4 -26 -2 -28 31 -28 40 0 42 4 46 90
l3 65 38 3 c34 3 37 5 35 33 -2 30 -31 42 -41 17 -4 -10 -6 -10 -6 0 -1 7 -16
12 -40 12 -22 0 -42 -5 -44 -12 -4 -10 -6 -10 -6 0 -1 15 -67 16 -77 1z"/>
<path d="M931 641 c-12 -16 -21 -32 -21 -35 0 -3 -13 -35 -30 -71 -16 -36 -30
-71 -30 -78 0 -7 -7 -22 -15 -34 -14 -20 -14 -23 4 -33 28 -15 38 -13 44 10 4
16 14 20 50 20 25 0 52 3 60 6 12 4 17 -6 22 -45 7 -50 21 -73 34 -53 3 5 15
12 26 15 18 4 18 5 -2 6 -14 1 -23 7 -23 17 0 14 3 14 15 4 12 -10 15 -10 15
4 0 11 9 16 30 16 35 0 41 24 13 46 -17 12 -16 13 5 14 20 0 22 5 22 50 0 28
3 50 8 50 4 -1 30 -34 57 -75 28 -41 57 -75 65 -75 9 0 24 14 33 30 10 17 13
30 8 30 -6 0 -11 -4 -11 -10 0 -5 -4 -10 -9 -10 -4 0 -6 11 -3 25 3 19 8 23
17 15 14 -12 25 15 25 62 0 21 -4 25 -20 21 -18 -5 -20 0 -21 43 l-2 49 -9
-62 c-5 -35 -13 -63 -16 -63 -4 0 -27 29 -51 65 -24 35 -48 62 -52 59 -5 -3
-9 0 -9 5 0 6 -11 11 -24 11 -27 0 -32 -15 -41 -145 -8 -107 -13 -125 -31
-125 -11 0 -13 6 -9 20 3 11 2 20 -3 20 -5 0 -7 14 -4 30 2 17 -8 68 -22 115
-24 76 -29 85 -51 85 -15 0 -31 -11 -44 -29z m46 -121 l10 -40 -34 0 -33 0 15
36 c8 20 15 38 15 40 0 2 4 4 8 4 4 0 13 -18 19 -40z m339 -8 c-14 -14 -16
-14 -16 -1 0 20 23 44 29 28 2 -6 -4 -18 -13 -27z m-426 -72 c0 -5 -4 -10 -9
-10 -6 0 -13 5 -16 10 -3 6 1 10 9 10 9 0 16 -4 16 -10z m60 1 c0 -4 -11 -6
-25 -3 -14 2 -25 6 -25 8 0 2 11 4 25 4 14 0 25 -4 25 -9z"/>
<path d="M1336 661 c-4 -7 -5 -15 -2 -18 9 -9 19 4 14 18 -4 11 -6 11 -12 0z"/>
<path d="M1584 659 c-3 -6 0 -15 7 -20 9 -6 11 -11 3 -16 -5 -5 -10 -19 -10
-33 0 -16 -6 -26 -17 -28 -14 -3 -17 5 -18 45 l-1 48 -9 -55 c-18 -128 -20
-190 -4 -190 8 0 20 9 27 20 17 26 32 26 25 0 -5 -19 -2 -20 46 -15 99 11 115
16 141 40 20 19 26 33 26 68 0 23 -5 48 -11 54 -8 8 -8 17 0 30 14 26 10 63
-6 63 -8 0 -27 -13 -43 -30 -25 -25 -37 -30 -80 -30 -49 0 -50 1 -50 30 0 30
-13 40 -26 19z m-18 -147 c-14 -14 -16 -14 -16 -1 0 20 23 44 29 28 2 -6 -4
-18 -13 -27z m164 22 c22 -25 -9 -45 -80 -51 -57 -6 -63 -4 -57 11 4 10 7 24
7 31 0 27 110 35 130 9z m-165 -80 c-19 -20 -23 -18 -17 11 3 20 7 23 18 14
11 -9 11 -13 -1 -25z m75 -14 c0 -5 -4 -10 -9 -10 -6 0 -13 5 -16 10 -3 6 1
10 9 10 9 0 16 -4 16 -10z m60 1 c0 -4 -11 -6 -25 -3 -14 2 -25 6 -25 8 0 2
11 4 25 4 14 0 25 -4 25 -9z"/>
<path d="M1855 658 c-7 -23 -22 -203 -17 -215 2 -7 11 -13 19 -13 8 0 11 5 8
10 -3 6 1 10 9 10 15 0 16 6 31 163 6 56 6 57 -20 57 -14 0 -27 -6 -30 -12z"/>
<path d="M2023 663 c3 -5 -1 -53 -8 -108 -9 -74 -10 -102 -1 -107 17 -12 31
-4 34 20 2 12 8 20 13 17 5 -4 9 1 9 10 0 9 -4 13 -10 10 -14 -9 -12 19 2 33
10 10 10 15 1 20 -6 4 -13 31 -14 60 -2 36 -7 52 -16 52 -8 0 -12 -3 -10 -7z"/>
<path d="M2470 663 c-1 -5 -7 -51 -14 -103 -8 -52 -11 -98 -8 -101 4 -4 21 -5
38 -2 l31 5 7 100 c6 101 3 125 -14 98 -7 -10 -10 -11 -10 -2 0 13 -30 17 -30
5z"/>
<path d="M3334 659 c-3 -6 0 -15 7 -20 10 -6 11 -11 3 -16 -6 -5 -10 -18 -9
-31 1 -13 -2 -25 -6 -28 -5 -2 -6 -11 -2 -19 3 -9 0 -22 -7 -30 -11 -13 -8
-15 19 -15 30 0 31 2 32 43 0 23 2 61 5 85 5 37 4 42 -14 42 -12 0 -24 -5 -28
-11z"/>
<path d="M3606 648 c-3 -13 -8 -50 -11 -82 l-7 -59 63 6 c34 4 81 7 104 7 58
0 115 51 115 103 0 39 -15 56 -33 38 -9 -9 -8 -14 3 -21 10 -7 11 -13 4 -17
-5 -5 -10 -19 -10 -33 0 -16 -6 -26 -17 -28 -10 -2 -17 3 -17 13 0 14 -10 16
-67 13 -62 -3 -68 -1 -65 16 2 10 1 29 -2 42 -9 33 -54 34 -60 2z"/>
<path d="M3760 660 c0 -5 6 -10 14 -10 8 0 18 5 21 10 3 6 -3 10 -14 10 -12 0
-21 -4 -21 -10z"/>
<path d="M4344 645 c4 -14 3 -25 -2 -25 -4 0 -8 -9 -9 -20 -3 -31 14 -24 42
17 32 48 32 53 -6 53 -28 0 -31 -2 -25 -25z"/>
<path d="M4596 638 c-4 -18 -8 -59 -9 -90 -2 -57 -2 -58 25 -58 29 0 30 4 41
133 4 46 4 47 -23 47 -23 0 -29 -5 -34 -32z"/>
<path d="M4954 615 c-68 -44 -82 -58 -86 -84 l-5 -31 94 0 c72 0 93 3 93 14 0
7 8 20 17 27 15 13 16 12 11 -8 -6 -21 -2 -23 28 -23 31 0 34 2 34 31 0 31 0
32 -42 27 -24 -3 -54 -2 -68 1 l-25 7 23 13 c18 9 22 20 20 47 -1 18 -5 34 -8
33 -3 0 -42 -24 -86 -54z"/>
<path d="M5085 659 c-12 -19 5 -23 22 -6 16 16 16 17 1 17 -9 0 -20 -5 -23
-11z"/>
<path d="M2587 625 c-16 -100 -19 -195 -8 -195 7 0 10 4 6 9 -3 5 0 52 6 105
11 94 8 158 -4 81z"/>
<path d="M3015 640 c-16 -18 -17 -22 -4 -35 8 -8 25 -11 42 -8 22 4 27 11 27
34 0 24 -4 29 -23 29 -13 0 -32 -9 -42 -20z"/>
<path d="M610 641 c0 -5 -4 -43 -9 -83 -5 -40 -12 -99 -15 -130 l-6 -58 30 0
c26 0 30 4 30 26 0 15 -8 32 -17 39 -14 10 -9 13 30 13 26 1 47 -3 47 -7 0 -5
-10 -7 -21 -4 -29 8 -19 -8 48 -81 50 -55 52 -56 66 -35 19 26 12 50 -24 85
-33 32 -36 44 -11 44 17 0 47 27 67 60 8 13 6 13 -8 1 -15 -11 -17 -11 -17 2
0 21 27 42 33 25 3 -7 6 -3 6 8 1 15 -5 21 -16 20 -14 -1 -19 8 -21 42 l-3 42
-95 0 c-52 0 -94 -4 -94 -9z m168 -69 c6 -39 -24 -62 -81 -62 -41 0 -48 3 -43
16 3 9 6 29 6 45 l0 30 58 -3 c51 -3 57 -5 60 -26z"/>
<path d="M2370 638 c1 -7 7 -24 15 -38 l14 -25 1 38 c0 26 -4 37 -15 37 -8 0
-15 -6 -15 -12z"/>
<path d="M1333 598 c-2 -18 0 -20 7 -8 12 18 13 30 2 30 -4 0 -9 -10 -9 -22z"/>
<path d="M2140 588 c0 -19 2 -20 10 -8 13 19 13 30 0 30 -5 0 -10 -10 -10 -22z"/>
<path d="M5396 559 c-15 -9 -16 -13 -5 -20 23 -15 39 -10 39 11 0 23 -7 24
-34 9z"/>
<path d="M527 525 c-15 -96 -19 -195 -8 -195 7 0 10 4 7 8 -3 5 -1 50 5 101
11 95 8 157 -4 86z"/>
<path d="M5200 539 c0 -15 4 -19 16 -15 9 3 21 6 27 6 13 1 -22 30 -35 30 -4
0 -8 -9 -8 -21z"/>
<path d="M3240 508 c-3 -26 -1 -43 3 -39 5 5 7 26 5 47 l-3 39 -5 -47z"/>
<path d="M4390 535 c-11 -13 -8 -15 15 -15 23 0 26 2 15 15 -7 8 -14 15 -15
15 -1 0 -8 -7 -15 -15z"/>
<path d="M321 533 c0 -5 4 -17 9 -28 8 -18 9 -17 9 8 1 15 -3 27 -9 27 -5 0
-10 -3 -9 -7z"/>
<path d="M395 418 c-12 -59 -11 -63 20 -63 25 0 31 5 39 33 7 26 6 36 -5 43
-25 16 -48 10 -54 -13z"/>
<path d="M1191 361 c-10 -17 -9 -21 3 -21 20 0 27 13 16 29 -6 11 -10 9 -19
-8z"/>
<path d="M925 351 c-3 -11 -18 -24 -33 -30 -24 -8 -22 -10 24 -10 l51 -1 -5
30 c-5 34 -27 40 -37 11z"/>
</g>
</svg>
